<svg width="33" height="32" viewBox="0 0 33 32" fill="none" xmlns="http://www.w3.org/2000/svg">
<g id="Group 6">
<rect id="Rectangle 6" x="0.5" width="32" height="32" rx="16" fill="white"/>
<path id="Vector" d="M12.7337 17.3331L15.2164 10.353H13.5753L12.4391 13.3821L12.6916 10.353H10.9663L8.48361 17.3331H10.0826L11.303 13.9528L11.0926 17.2453L12.7337 17.3331ZM14.6693 17.3331L17.152 10.353H15.5951L13.0703 17.3331H14.6693ZM19.1719 16.8941L19.0877 13.3821L21.4442 10.5286L19.1719 16.8941ZM30.6176 14.4357L22.6224 16.5868L22.8328 15.9283H21.1496L21.6967 14.2601H23.1274L23.5482 12.987L22.1175 13.0748L22.6224 11.67H24.011L24.4739 10.3969H19.9714L18.3303 12.4163L19.1298 10.353H17.5308L15.0481 17.3331H16.6892L17.7412 14.3479V17.3331H19.8451L12.3129 19.3964C11.5274 19.6305 10.826 19.7329 10.2089 19.7037C9.59169 19.6744 9.1148 19.4988 8.77817 19.1769C8.02073 18.5915 7.7542 17.6989 7.97865 16.499C8.1189 15.7088 8.42747 14.9479 8.90441 14.2162C7.78226 15.4454 6.95468 16.4843 6.4217 17.3331C5.83258 18.2403 5.45386 19.133 5.28554 20.011C5.11722 20.889 5.2154 21.606 5.5801 22.1621C6.56195 23.8595 8.70802 23.9766 12.0183 22.5133L30.6176 14.4357Z" fill="#1A2530"/>
</g>
</svg>
